<svg width="267" height="252" viewBox="0 0 267 252" fill="none" xmlns="http://www.w3.org/2000/svg">
<path opacity="0.5" d="M103.91 0C97.043 0 90.4571 2.47357 85.6013 6.87655C80.7455 11.2795 78.0175 17.2513 78.0175 23.478C78.0175 29.7048 80.7455 35.6765 85.6013 40.0795C90.4571 44.4825 97.043 46.956 103.91 46.956H163.093C169.96 46.956 176.546 44.4825 181.402 40.0795C186.258 35.6765 188.986 29.7048 188.986 23.478C188.986 17.2513 186.258 11.2795 181.402 6.87655C176.546 2.47357 169.96 0 163.093 0H103.91ZM13.1233 190.574C0.428552 144.531 -5.91883 121.522 7.39736 106.04C20.7135 90.5581 46.9021 90.5581 99.2495 90.5581H167.754C220.101 90.5581 246.26 90.5581 259.591 106.04C272.922 121.509 266.575 144.544 253.88 190.574C245.802 219.862 241.777 234.498 229.733 243.031C217.69 251.55 201.044 251.55 167.754 251.55H99.2495C65.959 251.55 49.3138 251.55 37.27 243.031C25.2263 234.498 21.187 219.862 13.1233 190.574Z" fill="#FFE9C7"/>
<path d="M186.722 32.4315C188.388 29.3835 189.256 26.048 189.261 22.6688C189.266 19.2896 188.409 15.9521 186.751 12.9003C196.904 12.9653 204.827 13.3687 211.888 15.789C220.335 18.6812 227.681 23.5964 233.085 29.9722C238.541 36.4001 241.113 44.6368 244.636 55.9834L245.319 58.1954L252.945 96.7503C246.865 93.0809 239.031 90.8949 228.894 89.5937L223.542 62.4374C219.306 48.9048 217.775 44.6498 215.188 41.605C212.277 38.1712 208.321 35.5242 203.772 33.9669C200.501 32.8478 196.562 32.5355 186.722 32.4315ZM80.244 12.9003C78.5864 15.9521 77.7288 19.2896 77.734 22.6688C77.7391 26.048 78.6068 29.3835 80.2737 32.4315C70.4331 32.5225 66.4939 32.8478 63.2236 33.9669C58.6744 35.5242 54.718 38.1712 51.8073 41.605C49.2208 44.6498 47.6897 48.9048 43.468 62.4244L38.1018 89.6067C27.9639 90.9079 20.1301 93.0809 14.0503 96.7373L21.676 58.1954L22.3598 55.9834C25.8828 44.6368 28.4544 36.4001 33.9099 29.9591C39.3187 23.593 46.6643 18.687 55.1073 15.802C62.1682 13.3817 70.0912 12.9783 80.244 12.9133" fill="#3C5B6F"/>
<path d="M72.7192 124.88C77.6602 124.88 81.4541 125.41 84.101 126.468C86.748 127.527 89.042 128.673 90.983 129.908C92.0418 130.526 92.88 131.011 93.4976 131.364C94.2035 131.628 94.8652 131.761 95.4828 131.761C96.3651 131.761 96.9828 131.276 97.3357 130.305C97.7768 129.335 98.1298 127.88 98.3945 125.939H101.438C101.35 127.615 101.218 129.556 101.041 131.761C100.953 133.966 100.865 136.921 100.777 140.626C100.777 144.243 100.777 149.05 100.777 155.048H97.7327C97.468 150.55 96.4534 146.227 94.6888 142.081C93.0124 137.936 90.586 134.539 87.4097 131.893C84.3216 129.159 80.3512 127.791 75.4985 127.791C71.1752 127.791 67.5577 129.07 64.6461 131.628C61.8227 134.187 60.411 137.627 60.411 141.949C60.411 145.654 61.3374 148.785 63.1903 151.344C65.0431 153.813 67.6459 156.239 70.9987 158.621C74.4397 160.914 78.4983 163.561 83.1746 166.56C87.4979 169.383 91.3801 172.205 94.8211 175.028C98.2621 177.763 100.953 180.806 102.894 184.158C104.924 187.51 105.938 191.612 105.938 196.463C105.938 202.197 104.527 206.96 101.703 210.753C98.8797 214.546 95.0858 217.369 90.3213 219.221C85.5568 221.074 80.3512 222 74.7044 222C69.4988 222 65.3519 221.471 62.2638 220.412C59.264 219.354 56.6612 218.251 54.4554 217.104C52.5143 215.869 51.0144 215.252 49.9556 215.252C49.0733 215.252 48.4116 215.737 47.9704 216.707C47.6175 217.678 47.3087 219.133 47.044 221.074H44C44.1765 219.045 44.2647 216.663 44.2647 213.929C44.3529 211.194 44.397 207.666 44.397 203.344C44.4853 198.933 44.5294 193.376 44.5294 186.672H47.5734C47.9263 192.317 48.8968 197.61 50.485 202.55C52.1614 207.401 54.676 211.327 58.0287 214.326C61.4698 217.325 66.0137 218.824 71.6604 218.824C74.7485 218.824 77.5278 218.295 79.9983 217.237C82.557 216.09 84.5863 214.37 86.0862 212.076C87.5862 209.695 88.3361 206.696 88.3361 203.079C88.3361 199.462 87.4979 196.287 85.8215 193.552C84.1451 190.818 81.807 188.26 78.8072 185.878C75.8073 183.496 72.2781 181.07 68.2194 178.601C64.0726 175.954 60.1904 173.264 56.5729 170.529C52.9555 167.795 50.0438 164.707 47.8381 161.267C45.7205 157.739 44.6617 153.505 44.6617 148.565C44.6617 143.096 45.9852 138.641 48.6321 135.201C51.2791 131.673 54.7201 129.07 58.9552 127.394C63.2785 125.718 67.8665 124.88 72.7192 124.88Z" fill="white"/>
<path d="M131.658 118C134.834 118 137.437 118.882 139.466 120.646C141.496 122.411 142.51 124.748 142.51 127.659C142.51 130.57 141.496 132.908 139.466 134.672C137.437 136.436 134.834 137.318 131.658 137.318C128.482 137.318 125.879 136.436 123.849 134.672C121.82 132.908 120.805 130.57 120.805 127.659C120.805 124.748 121.82 122.411 123.849 120.646C125.879 118.882 128.482 118 131.658 118ZM140.922 150.285V207.842C140.922 211.547 141.584 214.061 142.907 215.384C144.319 216.707 146.657 217.369 149.922 217.369V220.148C148.334 220.059 145.907 219.971 142.643 219.883C139.378 219.707 136.069 219.618 132.717 219.618C129.452 219.618 126.143 219.707 122.791 219.883C119.438 219.971 116.923 220.059 115.247 220.148V217.369C118.511 217.369 120.805 216.707 122.129 215.384C123.541 214.061 124.247 211.547 124.247 207.842V166.295C124.247 162.237 123.585 159.282 122.261 157.43C121.026 155.489 118.688 154.519 115.247 154.519V151.74C118.07 152.005 120.805 152.137 123.452 152.137C126.717 152.137 129.805 152.005 132.717 151.74C135.717 151.388 138.452 150.902 140.922 150.285Z" fill="white"/>
<path d="M188.781 124.88C193.722 124.88 197.516 125.41 200.163 126.468C202.81 127.527 205.104 128.673 207.045 129.908C208.104 130.526 208.942 131.011 209.559 131.364C210.265 131.628 210.927 131.761 211.545 131.761C212.427 131.761 213.045 131.276 213.397 130.305C213.839 129.335 214.192 127.88 214.456 125.939H217.5C217.412 127.615 217.28 129.556 217.103 131.761C217.015 133.966 216.927 136.921 216.838 140.626C216.838 144.243 216.838 149.05 216.838 155.048H213.795C213.53 150.55 212.515 146.227 210.751 142.081C209.074 137.936 206.648 134.539 203.471 131.893C200.383 129.159 196.413 127.791 191.56 127.791C187.237 127.791 183.619 129.07 180.708 131.628C177.884 134.187 176.473 137.627 176.473 141.949C176.473 145.654 177.399 148.785 179.252 151.344C181.105 153.813 183.708 156.239 187.06 158.621C190.501 160.914 194.56 163.561 199.236 166.56C203.56 169.383 207.442 172.205 210.883 175.028C214.324 177.763 217.015 180.806 218.956 184.158C220.985 187.51 222 191.612 222 196.463C222 202.197 220.588 206.96 217.765 210.753C214.942 214.546 211.148 217.369 206.383 219.221C201.619 221.074 196.413 222 190.766 222C185.561 222 181.414 221.471 178.326 220.412C175.326 219.354 172.723 218.251 170.517 217.104C168.576 215.869 167.076 215.252 166.017 215.252C165.135 215.252 164.473 215.737 164.032 216.707C163.679 217.678 163.37 219.133 163.106 221.074H160.062C160.238 219.045 160.326 216.663 160.326 213.929C160.415 211.194 160.459 207.666 160.459 203.344C160.547 198.933 160.591 193.376 160.591 186.672H163.635C163.988 192.317 164.959 197.61 166.547 202.55C168.223 207.401 170.738 211.327 174.091 214.326C177.532 217.325 182.075 218.824 187.722 218.824C190.81 218.824 193.59 218.295 196.06 217.237C198.619 216.09 200.648 214.37 202.148 212.076C203.648 209.695 204.398 206.696 204.398 203.079C204.398 199.462 203.56 196.287 201.883 193.552C200.207 190.818 197.869 188.26 194.869 185.878C191.869 183.496 188.34 181.07 184.281 178.601C180.134 175.954 176.252 173.264 172.635 170.529C169.017 167.795 166.106 164.707 163.9 161.267C161.782 157.739 160.724 153.505 160.724 148.565C160.724 143.096 162.047 138.641 164.694 135.201C167.341 131.673 170.782 129.07 175.017 127.394C179.34 125.718 183.928 124.88 188.781 124.88Z" fill="white"/>
</svg>
